<mxfile host="Electron" modified="2023-07-16T12:12:44.136Z" agent="Mozilla/5.0 (X11; Linux x86_64) AppleWebKit/537.36 (KHTML, like Gecko) draw.io/21.3.7 Chrome/112.0.5615.204 Electron/24.5.0 Safari/537.36" etag="Yhz6sjyX41kDJIR_L4RZ" version="21.3.7" type="device">
  <diagram name="Page-1" id="dtcc9ute07GkUYFZOznT">
    <mxGraphModel dx="1434" dy="839" grid="1" gridSize="10" guides="1" tooltips="1" connect="1" arrows="1" fold="1" page="1" pageScale="1" pageWidth="850" pageHeight="1100" math="0" shadow="0">
      <root>
        <mxCell id="0" />
        <mxCell id="1" parent="0" />
        <mxCell id="f9iZD4vvB5q7ut75ZgG1-14" value="" style="rounded=0;whiteSpace=wrap;html=1;" vertex="1" parent="1">
          <mxGeometry x="280" y="200" width="200" height="60" as="geometry" />
        </mxCell>
        <mxCell id="f9iZD4vvB5q7ut75ZgG1-9" value="" style="whiteSpace=wrap;html=1;" vertex="1" parent="1">
          <mxGeometry x="40" y="160" width="200" height="80" as="geometry" />
        </mxCell>
        <mxCell id="f9iZD4vvB5q7ut75ZgG1-2" value="&lt;b&gt;version&lt;/b&gt;: number" style="text;html=1;strokeColor=none;fillColor=none;align=left;verticalAlign=middle;whiteSpace=wrap;rounded=0;" vertex="1" parent="1">
          <mxGeometry x="80" y="160" width="100" height="30" as="geometry" />
        </mxCell>
        <mxCell id="f9iZD4vvB5q7ut75ZgG1-3" value="&lt;h1&gt;Hey Config Schema&lt;/h1&gt;&lt;p&gt;Following is the schema of Hey config which is presented in YAML searlization, but can be done is other&amp;nbsp;searlization formats.&lt;/p&gt;" style="text;html=1;strokeColor=none;fillColor=none;spacing=5;spacingTop=-20;whiteSpace=wrap;overflow=hidden;rounded=0;" vertex="1" parent="1">
          <mxGeometry x="260" y="10" width="240" height="120" as="geometry" />
        </mxCell>
        <mxCell id="f9iZD4vvB5q7ut75ZgG1-7" value="&lt;b&gt;meta&lt;/b&gt;: Meta" style="text;html=1;strokeColor=none;fillColor=none;align=left;verticalAlign=middle;whiteSpace=wrap;rounded=0;" vertex="1" parent="1">
          <mxGeometry x="80" y="180" width="100" height="30" as="geometry" />
        </mxCell>
        <mxCell id="f9iZD4vvB5q7ut75ZgG1-8" value="&lt;b&gt;tasks&lt;/b&gt;: map[string]Task" style="text;html=1;strokeColor=none;fillColor=none;align=left;verticalAlign=middle;whiteSpace=wrap;rounded=0;" vertex="1" parent="1">
          <mxGeometry x="80" y="200" width="130" height="30" as="geometry" />
        </mxCell>
        <mxCell id="f9iZD4vvB5q7ut75ZgG1-10" value="&lt;b&gt;MODULE_NAME.yaml&lt;/b&gt;" style="text;html=1;strokeColor=none;fillColor=none;align=left;verticalAlign=middle;whiteSpace=wrap;rounded=0;" vertex="1" parent="1">
          <mxGeometry x="80" y="130" width="150" height="30" as="geometry" />
        </mxCell>
        <mxCell id="f9iZD4vvB5q7ut75ZgG1-12" value="&lt;b&gt;desciption&lt;/b&gt;: string" style="text;html=1;strokeColor=none;fillColor=none;align=left;verticalAlign=middle;whiteSpace=wrap;rounded=0;" vertex="1" parent="1">
          <mxGeometry x="320" y="200" width="105" height="30" as="geometry" />
        </mxCell>
        <mxCell id="f9iZD4vvB5q7ut75ZgG1-13" value="&lt;b&gt;Meta&lt;/b&gt;" style="text;html=1;strokeColor=none;fillColor=none;align=left;verticalAlign=middle;whiteSpace=wrap;rounded=0;" vertex="1" parent="1">
          <mxGeometry x="320" y="170" width="150" height="30" as="geometry" />
        </mxCell>
        <mxCell id="f9iZD4vvB5q7ut75ZgG1-15" value="" style="rounded=0;whiteSpace=wrap;html=1;" vertex="1" parent="1">
          <mxGeometry x="280" y="320" width="200" height="60" as="geometry" />
        </mxCell>
        <mxCell id="f9iZD4vvB5q7ut75ZgG1-16" value="&lt;b&gt;[string]&lt;/b&gt;: []SubTask" style="text;html=1;strokeColor=none;fillColor=none;align=left;verticalAlign=middle;whiteSpace=wrap;rounded=0;" vertex="1" parent="1">
          <mxGeometry x="320" y="320" width="105" height="30" as="geometry" />
        </mxCell>
        <mxCell id="f9iZD4vvB5q7ut75ZgG1-17" value="&lt;b&gt;Task&lt;/b&gt;" style="text;html=1;strokeColor=none;fillColor=none;align=left;verticalAlign=middle;whiteSpace=wrap;rounded=0;" vertex="1" parent="1">
          <mxGeometry x="320" y="290" width="150" height="30" as="geometry" />
        </mxCell>
        <mxCell id="f9iZD4vvB5q7ut75ZgG1-18" value="" style="rounded=0;whiteSpace=wrap;html=1;" vertex="1" parent="1">
          <mxGeometry x="520" y="360" width="200" height="60" as="geometry" />
        </mxCell>
        <mxCell id="f9iZD4vvB5q7ut75ZgG1-19" value="&lt;b&gt;task_type&lt;/b&gt;: string" style="text;html=1;strokeColor=none;fillColor=none;align=left;verticalAlign=middle;whiteSpace=wrap;rounded=0;" vertex="1" parent="1">
          <mxGeometry x="560" y="360" width="105" height="30" as="geometry" />
        </mxCell>
        <mxCell id="f9iZD4vvB5q7ut75ZgG1-20" value="&lt;b&gt;SubTask&lt;/b&gt;" style="text;html=1;strokeColor=none;fillColor=none;align=left;verticalAlign=middle;whiteSpace=wrap;rounded=0;" vertex="1" parent="1">
          <mxGeometry x="560" y="330" width="150" height="30" as="geometry" />
        </mxCell>
        <mxCell id="f9iZD4vvB5q7ut75ZgG1-21" value="&lt;b&gt;spawn_info&lt;/b&gt;: SpawnInfo" style="text;html=1;strokeColor=none;fillColor=none;align=left;verticalAlign=middle;whiteSpace=wrap;rounded=0;" vertex="1" parent="1">
          <mxGeometry x="560" y="380" width="140" height="30" as="geometry" />
        </mxCell>
        <mxCell id="f9iZD4vvB5q7ut75ZgG1-25" value="" style="rounded=0;whiteSpace=wrap;html=1;" vertex="1" parent="1">
          <mxGeometry x="760" y="440" width="200" height="60" as="geometry" />
        </mxCell>
        <mxCell id="f9iZD4vvB5q7ut75ZgG1-26" value="&lt;b&gt;name&lt;/b&gt;: string" style="text;html=1;strokeColor=none;fillColor=none;align=left;verticalAlign=middle;whiteSpace=wrap;rounded=0;" vertex="1" parent="1">
          <mxGeometry x="800" y="440" width="105" height="30" as="geometry" />
        </mxCell>
        <mxCell id="f9iZD4vvB5q7ut75ZgG1-27" value="&lt;b&gt;SpawnInfo&lt;/b&gt;" style="text;html=1;strokeColor=none;fillColor=none;align=left;verticalAlign=middle;whiteSpace=wrap;rounded=0;" vertex="1" parent="1">
          <mxGeometry x="800" y="410" width="150" height="30" as="geometry" />
        </mxCell>
        <mxCell id="f9iZD4vvB5q7ut75ZgG1-28" value="&lt;b&gt;args&lt;/b&gt;: []string" style="text;html=1;strokeColor=none;fillColor=none;align=left;verticalAlign=middle;whiteSpace=wrap;rounded=0;" vertex="1" parent="1">
          <mxGeometry x="800" y="460" width="140" height="30" as="geometry" />
        </mxCell>
        <mxCell id="f9iZD4vvB5q7ut75ZgG1-30" value="" style="curved=1;endArrow=classic;html=1;rounded=0;entryX=0;entryY=0.5;entryDx=0;entryDy=0;" edge="1" parent="1" source="f9iZD4vvB5q7ut75ZgG1-7" target="f9iZD4vvB5q7ut75ZgG1-13">
          <mxGeometry width="50" height="50" relative="1" as="geometry">
            <mxPoint x="160" y="200" as="sourcePoint" />
            <mxPoint x="210" y="150" as="targetPoint" />
          </mxGeometry>
        </mxCell>
        <mxCell id="f9iZD4vvB5q7ut75ZgG1-32" value="" style="endArrow=classic;html=1;exitX=1;exitY=0.5;exitDx=0;exitDy=0;entryX=0;entryY=0.5;entryDx=0;entryDy=0;curved=1;" edge="1" parent="1" source="f9iZD4vvB5q7ut75ZgG1-8" target="f9iZD4vvB5q7ut75ZgG1-17">
          <mxGeometry width="50" height="50" relative="1" as="geometry">
            <mxPoint x="450" y="370" as="sourcePoint" />
            <mxPoint x="500" y="320" as="targetPoint" />
            <Array as="points">
              <mxPoint x="240" y="300" />
            </Array>
          </mxGeometry>
        </mxCell>
        <mxCell id="f9iZD4vvB5q7ut75ZgG1-33" value="" style="endArrow=classic;html=1;exitX=1;exitY=0.5;exitDx=0;exitDy=0;entryX=0;entryY=0.5;entryDx=0;entryDy=0;rounded=0;" edge="1" parent="1" source="f9iZD4vvB5q7ut75ZgG1-16" target="f9iZD4vvB5q7ut75ZgG1-20">
          <mxGeometry width="50" height="50" relative="1" as="geometry">
            <mxPoint x="570" y="370" as="sourcePoint" />
            <mxPoint x="620" y="320" as="targetPoint" />
          </mxGeometry>
        </mxCell>
        <mxCell id="f9iZD4vvB5q7ut75ZgG1-36" value="" style="endArrow=classic;html=1;rounded=0;exitX=1;exitY=0.5;exitDx=0;exitDy=0;entryX=0;entryY=0.5;entryDx=0;entryDy=0;strokeColor=default;" edge="1" parent="1" source="f9iZD4vvB5q7ut75ZgG1-21" target="f9iZD4vvB5q7ut75ZgG1-27">
          <mxGeometry width="50" height="50" relative="1" as="geometry">
            <mxPoint x="819.9999999999998" y="395" as="sourcePoint" />
            <mxPoint x="919.9999999999998" y="305" as="targetPoint" />
          </mxGeometry>
        </mxCell>
      </root>
    </mxGraphModel>
  </diagram>
</mxfile>
